<svg width="36" height="48" viewBox="0 0 36 48" fill="none" xmlns="http://www.w3.org/2000/svg">
<g clip-path="url(#clip0_239_39)">
<path fill-rule="evenodd" clip-rule="evenodd" d="M19.59 24.0901C19.1681 24.5114 18.5963 24.7481 18 24.7481C17.4037 24.7481 16.8319 24.5114 16.41 24.0901L7.923 15.6061C7.50111 15.184 7.26417 14.6116 7.26431 14.0148C7.26445 13.418 7.50166 12.8457 7.92375 12.4238C8.34584 12.0019 8.91824 11.765 9.51503 11.7651C10.1118 11.7653 10.6841 12.0025 11.106 12.4246L18 19.3186L24.894 12.4246C25.3182 12.0145 25.8864 11.7875 26.4764 11.7923C27.0663 11.7972 27.6307 12.0335 28.0481 12.4505C28.4655 12.8675 28.7024 13.4317 28.7078 14.0216C28.7132 14.6116 28.4867 15.18 28.077 15.6046L19.5915 24.0916L19.59 24.0901Z" fill="black"/>
</g>
<g clip-path="url(#clip1_239_39)">
<path fill-rule="evenodd" clip-rule="evenodd" d="M19.59 36.0901C19.1681 36.5114 18.5963 36.7481 18 36.7481C17.4037 36.7481 16.8319 36.5114 16.41 36.0901L7.923 27.6061C7.50111 27.184 7.26417 26.6116 7.26431 26.0148C7.26445 25.418 7.50166 24.8457 7.92375 24.4238C8.34584 24.0019 8.91824 23.765 9.51503 23.7651C10.1118 23.7653 10.6841 24.0025 11.106 24.4246L18 31.3186L24.894 24.4246C25.3182 24.0145 25.8864 23.7875 26.4764 23.7923C27.0663 23.7972 27.6307 24.0335 28.0481 24.4505C28.4655 24.8675 28.7024 25.4317 28.7078 26.0216C28.7132 26.6116 28.4867 27.18 28.077 27.6046L19.5915 36.0916L19.59 36.0901Z" fill="black"/>
</g>
<defs>
<clipPath id="clip0_239_39">
<rect width="36" height="36" fill="white"/>
</clipPath>
<clipPath id="clip1_239_39">
<rect width="36" height="36" fill="white" transform="translate(0 12)"/>
</clipPath>
</defs>
</svg>
